<svg width="148" height="35" viewBox="0 0 148 35" fill="none" xmlns="http://www.w3.org/2000/svg">
<path d="M56.4375 13.1307C56.3466 12.3239 55.9716 11.6989 55.3125 11.2557C54.6534 10.8068 53.8239 10.5824 52.8239 10.5824C52.108 10.5824 51.4886 10.696 50.9659 10.9233C50.4432 11.1449 50.0369 11.4517 49.7472 11.8438C49.4631 12.2301 49.321 12.6705 49.321 13.1648C49.321 13.5795 49.4176 13.9375 49.6108 14.2386C49.8097 14.5398 50.0682 14.7926 50.3864 14.9972C50.7102 15.196 51.0568 15.3636 51.4261 15.5C51.7955 15.6307 52.1506 15.7386 52.4915 15.8239L54.196 16.267C54.7528 16.4034 55.3239 16.5881 55.9091 16.821C56.4943 17.054 57.0369 17.3608 57.5369 17.7415C58.0369 18.1222 58.4403 18.5938 58.7472 19.1562C59.0597 19.7188 59.2159 20.392 59.2159 21.1761C59.2159 22.1648 58.9602 23.0426 58.4489 23.8097C57.9432 24.5767 57.2074 25.1818 56.2415 25.625C55.2813 26.0682 54.1193 26.2898 52.7557 26.2898C51.4489 26.2898 50.3182 26.0824 49.3636 25.6676C48.4091 25.2528 47.6619 24.6648 47.1222 23.9034C46.5824 23.1364 46.2841 22.2273 46.2273 21.1761H48.8693C48.9205 21.8068 49.125 22.3324 49.483 22.7528C49.8466 23.1676 50.3097 23.4773 50.8722 23.6818C51.4403 23.8807 52.0625 23.9801 52.7386 23.9801C53.483 23.9801 54.1449 23.8636 54.7244 23.6307C55.3097 23.392 55.7699 23.0625 56.1051 22.642C56.4403 22.2159 56.608 21.7187 56.608 21.1506C56.608 20.6335 56.4602 20.2102 56.1648 19.8807C55.875 19.5511 55.4801 19.2784 54.9801 19.0625C54.4858 18.8466 53.9261 18.6562 53.3011 18.4915L51.2386 17.929C49.8409 17.5483 48.733 16.9886 47.9148 16.25C47.1023 15.5114 46.696 14.5341 46.696 13.3182C46.696 12.3125 46.9688 11.4347 47.5142 10.6847C48.0597 9.93466 48.7983 9.35227 49.7301 8.9375C50.6619 8.51705 51.7131 8.30682 52.8835 8.30682C54.0653 8.30682 55.108 8.5142 56.0114 8.92898C56.9205 9.34375 57.6364 9.91477 58.1591 10.642C58.6818 11.3636 58.9545 12.1932 58.9773 13.1307H56.4375ZM64.9964 8.54545V26H62.3629V8.54545H64.9964ZM68.8317 26V8.54545H75.0533C76.4112 8.54545 77.5362 8.79261 78.4283 9.28693C79.3203 9.78125 79.9879 10.4574 80.4311 11.3153C80.8743 12.1676 81.0959 13.1278 81.0959 14.196C81.0959 15.2699 80.8714 16.2358 80.4226 17.0938C79.9794 17.946 79.3089 18.6222 78.4112 19.1222C77.5192 19.6165 76.397 19.8636 75.0447 19.8636H70.7663V17.6307H74.8061C75.6641 17.6307 76.3601 17.483 76.8942 17.1875C77.4283 16.8864 77.8203 16.4773 78.0703 15.9602C78.3203 15.4432 78.4453 14.8551 78.4453 14.196C78.4453 13.5369 78.3203 12.9517 78.0703 12.4403C77.8203 11.929 77.4254 11.5284 76.8857 11.2386C76.3516 10.9489 75.647 10.804 74.772 10.804H71.4652V26H68.8317ZM98.6804 14.2216H96.0213C95.919 13.6534 95.7287 13.1534 95.4503 12.7216C95.1719 12.2898 94.831 11.9233 94.4276 11.6222C94.0241 11.321 93.5724 11.0937 93.0724 10.9403C92.5781 10.7869 92.0526 10.7102 91.4957 10.7102C90.4901 10.7102 89.5895 10.9631 88.794 11.4688C88.0043 11.9744 87.3793 12.7159 86.919 13.6932C86.4645 14.6705 86.2372 15.8636 86.2372 17.2727C86.2372 18.6932 86.4645 19.892 86.919 20.8693C87.3793 21.8466 88.0071 22.5852 88.8026 23.0852C89.598 23.5852 90.4929 23.8352 91.4872 23.8352C92.0384 23.8352 92.5611 23.7614 93.0554 23.6136C93.5554 23.4602 94.0071 23.2358 94.4105 22.9403C94.8139 22.6449 95.1548 22.2841 95.4332 21.858C95.7173 21.4261 95.9134 20.9318 96.0213 20.375L98.6804 20.3835C98.5384 21.2415 98.2628 22.0312 97.8537 22.7528C97.4503 23.4688 96.9304 24.0881 96.294 24.6108C95.6634 25.1278 94.9418 25.5284 94.1293 25.8125C93.3168 26.0966 92.4304 26.2386 91.4702 26.2386C89.9588 26.2386 88.6122 25.8807 87.4304 25.1648C86.2486 24.4432 85.3168 23.4119 84.6349 22.071C83.9588 20.7301 83.6207 19.1307 83.6207 17.2727C83.6207 15.4091 83.9616 13.8097 84.6435 12.4744C85.3253 11.1335 86.2571 10.1051 87.4389 9.3892C88.6207 8.66761 89.9645 8.30682 91.4702 8.30682C92.3963 8.30682 93.2599 8.44034 94.0611 8.70739C94.8679 8.96875 95.5923 9.35511 96.2344 9.86648C96.8764 10.3722 97.4077 10.9915 97.8281 11.7244C98.2486 12.4517 98.5327 13.2841 98.6804 14.2216ZM103.189 26H100.393L106.675 8.54545H109.717L115.999 26H113.203L108.268 11.7159H108.132L103.189 26ZM103.658 19.1648H112.726V21.3807H103.658V19.1648ZM118.519 26V8.54545H121.153V23.733H129.062V26H118.519ZM145.884 14.2216H143.224C143.122 13.6534 142.932 13.1534 142.653 12.7216C142.375 12.2898 142.034 11.9233 141.631 11.6222C141.227 11.321 140.776 11.0937 140.276 10.9403C139.781 10.7869 139.256 10.7102 138.699 10.7102C137.693 10.7102 136.793 10.9631 135.997 11.4688C135.207 11.9744 134.582 12.7159 134.122 13.6932C133.668 14.6705 133.44 15.8636 133.44 17.2727C133.44 18.6932 133.668 19.892 134.122 20.8693C134.582 21.8466 135.21 22.5852 136.006 23.0852C136.801 23.5852 137.696 23.8352 138.69 23.8352C139.241 23.8352 139.764 23.7614 140.259 23.6136C140.759 23.4602 141.21 23.2358 141.614 22.9403C142.017 22.6449 142.358 22.2841 142.636 21.858C142.92 21.4261 143.116 20.9318 143.224 20.375L145.884 20.3835C145.741 21.2415 145.466 22.0312 145.057 22.7528C144.653 23.4688 144.134 24.0881 143.497 24.6108C142.866 25.1278 142.145 25.5284 141.332 25.8125C140.52 26.0966 139.634 26.2386 138.673 26.2386C137.162 26.2386 135.815 25.8807 134.634 25.1648C133.452 24.4432 132.52 23.4119 131.838 22.071C131.162 20.7301 130.824 19.1307 130.824 17.2727C130.824 15.4091 131.165 13.8097 131.847 12.4744C132.528 11.1335 133.46 10.1051 134.642 9.3892C135.824 8.66761 137.168 8.30682 138.673 8.30682C139.599 8.30682 140.463 8.44034 141.264 8.70739C142.071 8.96875 142.795 9.35511 143.438 9.86648C144.08 10.3722 144.611 10.9915 145.031 11.7244C145.452 12.4517 145.736 13.2841 145.884 14.2216Z" fill="#106BEA"/>
<path d="M0 5.83333C0 2.61167 2.61167 0 5.83333 0H29.1667C32.3883 0 35 2.61167 35 5.83333V29.1667C35 32.3883 32.3883 35 29.1667 35H5.83333C2.61167 35 0 32.3883 0 29.1667V5.83333Z" fill="#106BEA"/>
<path d="M28.6999 14.4337H22.1199C22.0732 13.8748 21.9488 13.3678 21.7466 12.9126C21.5521 12.4575 21.2799 12.0663 20.9299 11.7389C20.5877 11.4035 20.1716 11.148 19.6816 10.9723C19.1916 10.7887 18.6354 10.6969 18.0132 10.6969C16.9243 10.6969 16.0027 10.9683 15.2482 11.5113C14.5016 12.0543 13.9338 12.8328 13.5449 13.8469C13.1638 14.8609 12.9732 16.0786 12.9732 17.4999C12.9732 19.001 13.1677 20.2586 13.5566 21.2727C13.9532 22.2788 14.5249 23.0374 15.2716 23.5484C16.0182 24.0514 16.9166 24.3029 17.9666 24.3029C18.5654 24.3029 19.1021 24.2271 19.5766 24.0754C20.051 23.9157 20.4632 23.6881 20.8132 23.3927C21.1632 23.0972 21.4471 22.7419 21.6649 22.3267C21.8904 21.9035 22.0421 21.4284 22.1199 20.9014L28.6999 20.9493C28.6221 21.9874 28.3382 23.0453 27.8482 24.1233C27.3582 25.1932 26.6621 26.1834 25.7599 27.0936C24.8654 27.9959 23.7571 28.7225 22.4349 29.2735C21.1127 29.8244 19.5766 30.0999 17.8266 30.0999C15.6332 30.0999 13.6654 29.6168 11.9232 28.6507C10.1888 27.6845 8.816 26.2632 7.80489 24.3868C6.80155 22.5104 6.29989 20.2147 6.29989 17.4999C6.29989 14.7691 6.81322 12.4695 7.83989 10.601C8.86655 8.72462 10.251 7.30732 11.9932 6.34914C13.7354 5.38298 15.6799 4.8999 17.8266 4.8999C19.3354 4.8999 20.7238 5.1115 21.9916 5.53469C23.2593 5.95789 24.3716 6.57671 25.3282 7.39116C26.2849 8.19762 27.0549 9.19173 27.6382 10.3735C28.2216 11.5552 28.5754 12.9086 28.6999 14.4337Z" fill="white"/>
</svg>
